<svg width="0" height="0" class="hidden">
  <symbol fill="none" xmlns="http://www.w3.org/2000/svg" viewBox="0 0 37 36" id="logo">
    <path fill-rule="evenodd" clip-rule="evenodd" d="M36.022 20.132L11.808 34.889A18.102 18.102 0 0018.074 36c9.257 0 16.889-6.932 17.948-15.868zM8 32.947C3.175 29.715 0 24.227 0 18 0 11.773 3.175 6.285 8 3.053v29.894zM10.816 1.51A18.075 18.075 0 0118.074 0c9.62 0 17.485 7.487 18.042 16.93l-25.3-15.42z" fill="#E5261E"></path>
  </symbol>
  <symbol xmlns="http://www.w3.org/2000/svg" fill-rule="evenodd" clip-rule="evenodd" stroke-linejoin="round" stroke-miterlimit="2" viewBox="0 0 512 512" id="linkedin">
    <path d="M256 0c141.29 0 256 114.71 256 256 0 141.29-114.71 256-256 256C114.71 512 0 397.29 0 256 0 114.71 114.71 0 256 0zm-80.037 399.871V199.95h-66.464v199.921h66.464zm239.62 0V285.225c0-61.409-32.787-89.976-76.509-89.976-35.255 0-51.047 19.389-59.889 33.007V199.95h-66.447c.881 18.757 0 199.921 0 199.921h66.446v-111.65c0-5.976.43-11.95 2.191-16.221 4.795-11.935 15.737-24.299 34.095-24.299 24.034 0 33.663 18.34 33.663 45.204v106.966h66.45zM143.18 103.55c-22.74 0-37.597 14.95-37.597 34.545 0 19.182 14.405 34.544 36.717 34.544h.429c23.175 0 37.6-15.362 37.6-34.544-.43-19.595-14.424-34.545-37.149-34.545z"></path>
  </symbol>
  <symbol xmlns="http://www.w3.org/2000/svg" viewBox="0 0 56.7 56.7" id="upwork">
    <path d="M38.8 24.6c-2.8 0-3.7 2.7-3.9 4.3v.1l-.4 1.5c1.2 1 2.7 1.7 4.2 1.7 2 0 3.8-1.7 3.9-3.9 0-2-1.7-3.7-3.8-3.7z"></path>
    <path d="M28.9 3.7C15.2 3.7 4.1 14.8 4.1 28.5c0 13.7 11.1 24.8 24.8 24.8 13.7 0 24.8-11.1 24.8-24.8 0-13.7-11.1-24.8-24.8-24.8zm9.9 32.4c-2 0-3.7-.6-5.2-1.5l-1.7 8H28l2.4-11c-1-1.4-2-3-2.7-4.5v1.7c0 4.1-3.3 7.4-7.3 7.4s-7.3-3.3-7.3-7.4v-10h3.8v10c0 2 1.6 3.6 3.6 3.6s3.6-1.6 3.6-3.6v-10h3.8c.8 2.5 2.1 5.5 3.8 8.2 1-3.8 3.8-6.1 7.3-6.1 4.1 0 7.5 3.4 7.5 7.5-.2 4.3-3.6 7.7-7.7 7.7z"></path>
  </symbol>
  <symbol version="1.0" xmlns="http://www.w3.org/2000/svg" viewBox="0 0 32 32" id="github">
    <path clip-rule="evenodd" d="M16.003 0C7.17 0 .008 7.162.008 15.997c0 7.067 4.582 13.063 10.94 15.179.8.146 1.052-.328 1.052-.752 0-.38.008-1.442 0-2.777-4.449.967-5.371-2.107-5.371-2.107-.727-1.848-1.775-2.34-1.775-2.34-1.452-.992.109-.973.109-.973 1.605.113 2.451 1.649 2.451 1.649 1.427 2.443 3.743 1.737 4.654 1.329.146-1.034.56-1.739 1.017-2.139-3.552-.404-7.286-1.776-7.286-7.906 0-1.747.623-3.174 1.646-4.292-.165-.404-.715-2.031.157-4.234 0 0 1.343-.43 4.398 1.641a15.31 15.31 0 014.005-.538c1.359.006 2.727.183 4.005.538 3.055-2.07 4.396-1.641 4.396-1.641.872 2.203.323 3.83.159 4.234 1.023 1.118 1.644 2.545 1.644 4.292 0 6.146-3.74 7.498-7.304 7.893C19.479 23.548 20 24.508 20 26v4.428c0 .428.258.901 1.07.746C27.422 29.055 32 23.062 32 15.997 32 7.162 24.838 0 16.003 0z" fill-rule="evenodd"></path>
  </symbol>
</svg>