<?xml version="1.0" encoding="iso-8859-1"?>
<!-- Generator: Adobe Illustrator 19.0.0, SVG Export Plug-In . SVG Version: 6.00 Build 0)  -->
<svg version="1.1" id="Capa_1" xmlns="http://www.w3.org/2000/svg" xmlns:xlink="http://www.w3.org/1999/xlink" x="0px" y="0px"
	 viewBox="0 0 512 512" style="enable-background:new 0 0 512 512;" xml:space="preserve" width="70" height="70">
<path style="fill:#F2F2F2;" d="M512,256c0,7.074-0.282,14.075-0.846,21.002c-1.191,14.691-3.626,29.027-7.199,42.914v0.01
	C475.554,430.373,375.317,512,256,512C135.68,512,34.753,429.004,7.356,317.137C2.55,297.545,0,277.065,0,256
	c0-21.023,2.529-41.451,7.314-61.001C34.67,83.069,135.638,0,256,0c119.359,0,219.638,81.69,247.986,192.199v0.01
	c3.699,14.42,6.175,29.33,7.304,44.617C511.76,243.158,512,249.553,512,256z"/>
<g>
	<path style="fill:#333333;" d="M487.34,277.002h23.813c-1.191,14.691-3.626,29.027-7.199,42.914v0.01
		c-15.799,15.015-37.167,24.231-60.677,24.231c-48.671,0-88.116-39.445-88.116-88.106s39.445-88.106,88.116-88.106
		c23.531,0,44.91,9.226,60.709,24.252v0.01c3.699,14.42,6.175,29.33,7.304,44.617h-23.165c-7.461-17.387-24.743-29.56-44.847-29.56
		c-26.958,0-48.797,21.838-48.797,48.786s21.838,48.786,48.797,48.786C462.723,304.839,479.504,293.47,487.34,277.002z"/>
	<path style="fill:#333333;" d="M70.823,167.946c-24.952,0-47.48,10.376-63.509,27.052C2.529,214.549,0,234.977,0,256
		c0,21.065,2.55,41.545,7.356,61.137c16.008,16.656,38.525,27.021,63.467,27.021c18.056,0,34.826-5.423,48.797-14.733v16.457h39.32
		v-89.83C158.939,207.391,119.495,167.946,70.823,167.946z M70.823,304.839c-26.937,0-48.786-21.838-48.786-48.786
		s21.849-48.786,48.786-48.786c26.948,0,48.797,21.838,48.797,48.786S97.771,304.839,70.823,304.839z"/>
	<path style="fill:#333333;" d="M257.045,167.946c-18.045,0-34.816,5.423-48.786,14.733v-58.358h-39.32v131.73
		c0,48.661,39.445,88.106,88.106,88.106c48.671,0,88.116-39.445,88.116-88.106C345.161,207.391,305.716,167.946,257.045,167.946z
		 M257.045,304.839c-26.937,0-48.786-21.838-48.786-48.786s21.849-48.786,48.786-48.786c26.948,0,48.797,21.838,48.797,48.786
		S283.993,304.839,257.045,304.839z"/>
</g>
<g>
</g>
<g>
</g>
<g>
</g>
<g>
</g>
<g>
</g>
<g>
</g>
<g>
</g>
<g>
</g>
<g>
</g>
<g>
</g>
<g>
</g>
<g>
</g>
<g>
</g>
<g>
</g>
<g>
</g>
</svg>
