<?xml version="1.0" encoding="iso-8859-1"?>
<!-- Generator: Adobe Illustrator 19.0.0, SVG Export Plug-In . SVG Version: 6.00 Build 0)  -->
<svg version="1.1" id="Capa_1" xmlns="http://www.w3.org/2000/svg" xmlns:xlink="http://www.w3.org/1999/xlink" x="0px" y="0px"
	 viewBox="0 0 512 512" style="enable-background:new 0 0 512 512;" xml:space="preserve" width="70" height="70">
<g>
	<g>
		<path d="M256,0C116.06,0,2.365,112.283,0.055,251.672l2.159-3.52c26.131-42.602,62.862-78.235,106.225-103.046
			c44.722-25.589,95.747-39.114,147.561-39.114c51.813,0,102.838,13.525,147.56,39.114c43.363,24.811,80.096,60.444,106.227,103.046
			l2.159,3.52C509.635,112.283,395.94,0,256,0z"/>
	</g>
</g>
<g>
	<g>
		<path d="M509.786,263.838c-26.131,42.601-62.863,78.233-106.226,103.043c-44.226,25.304-94.619,38.802-145.842,39.097
			C257.145,405.985,256.574,406,256,406c-0.574,0-1.145-0.015-1.718-0.022c-51.223-0.296-101.616-13.793-145.842-39.097
			c-43.364-24.81-80.097-60.442-106.227-103.043l-2.159-3.52C2.365,399.707,116.061,512,256,512s253.635-112.293,255.945-251.682
			L509.786,263.838z"/>
	</g>
</g>
<g>
	<g>
		<path d="M138.449,162.932C96.225,183.523,59.68,215.278,32.78,255.995c26.896,40.709,63.434,72.46,105.651,93.05
			C118.137,323.457,106,291.121,106,256C106,220.869,118.145,188.524,138.449,162.932z"/>
	</g>
</g>
<g>
	<g>
		<path d="M373.551,162.932C393.855,188.525,406,220.869,406,256c0,35.121-12.137,67.457-32.431,93.045
			c42.217-20.59,78.755-52.341,105.651-93.05C452.319,215.279,415.775,183.523,373.551,162.932z"/>
	</g>
</g>
<g>
	<g>
		<path d="M256,136c-66.168,0-120,53.832-120,120c0,65.646,52.988,119.139,118.437,119.98c0.521,0.003,1.041,0.012,1.563,0.012
			c0.522,0,1.042-0.009,1.563-0.012C323.012,375.139,376,321.646,376,256C376,189.832,322.168,136,256,136z"/>
	</g>
</g>
<g>
</g>
<g>
</g>
<g>
</g>
<g>
</g>
<g>
</g>
<g>
</g>
<g>
</g>
<g>
</g>
<g>
</g>
<g>
</g>
<g>
</g>
<g>
</g>
<g>
</g>
<g>
</g>
<g>
</g>
</svg>
